<?xml version="1.0" standalone="no"?>
<!DOCTYPE svg PUBLIC "-//W3C//DTD SVG 20010904//EN"
 "http://www.w3.org/TR/2001/REC-SVG-20010904/DTD/svg10.dtd">
<svg version="1.0" xmlns="http://www.w3.org/2000/svg"
 width="200.000000pt" height="200.000000pt" viewBox="0 0 200.000000 200.000000"
 preserveAspectRatio="xMidYMid meet">

<g transform="translate(0.000000,200.000000) scale(0.100000,-0.100000)"
fill="#000000" stroke="none">
<path d="M740 1450 c-135 -49 -251 -92 -259 -97 -12 -8 -9 -58 23 -344 21
-184 41 -342 44 -352 4 -9 107 -73 230 -141 l222 -124 225 125 c169 94 226
130 230 146 15 73 77 679 69 687 -10 10 -516 190 -530 189 -5 -1 -119 -41
-254 -89z m425 -407 c87 -197 160 -361 162 -365 2 -5 -24 -8 -59 -8 l-63 0
-30 78 -31 77 -144 0 -144 0 -31 -77 -30 -78 -63 0 c-35 0 -61 3 -59 8 2 4 75
168 162 365 87 196 162 357 165 357 3 0 77 -161 165 -357z"/>
<path d="M953 1057 c-24 -56 -43 -106 -43 -110 0 -4 41 -7 90 -7 50 0 90 3 90
7 0 13 -85 213 -90 213 -3 0 -24 -46 -47 -103z"/>
</g>
</svg>
