<?xml version="1.0" standalone="no"?>
<!DOCTYPE svg PUBLIC "-//W3C//DTD SVG 20010904//EN"
 "http://www.w3.org/TR/2001/REC-SVG-20010904/DTD/svg10.dtd">
<svg version="1.0" xmlns="http://www.w3.org/2000/svg"
 width="200.000000pt" height="200.000000pt" viewBox="0 0 200.000000 200.000000"
 preserveAspectRatio="xMidYMid meet">

<g transform="translate(0.000000,200.000000) scale(0.100000,-0.100000)"
fill="#000000" stroke="none">
<path d="M590 1478 c-25 -13 -55 -38 -67 -57 -23 -34 -23 -36 -23 -421 0 -385
0 -387 23 -421 12 -19 42 -44 67 -57 45 -23 47 -23 421 -20 l376 3 36 28 c68
52 67 44 67 470 0 382 0 384 -22 417 -13 18 -36 43 -51 54 -28 20 -41 21 -405
24 -375 3 -377 3 -422 -20z m489 -179 c80 -13 117 -31 141 -72 36 -59 15 -174
-35 -193 -18 -7 -20 -24 -2 -24 24 0 65 -54 77 -101 22 -89 -22 -171 -108
-201 -25 -8 -97 -12 -217 -13 l-180 0 -3 295 c-1 162 0 300 3 307 6 16 230 18
324 2z"/>
<path d="M917 1193 c-4 -3 -7 -33 -7 -65 l0 -58 63 0 c76 0 107 18 107 61 0
47 -30 69 -98 69 -32 0 -62 -3 -65 -7z"/>
<path d="M910 880 l0 -80 65 0 c35 0 75 5 89 11 50 23 57 103 13 134 -14 10
-46 15 -94 15 l-73 0 0 -80z"/>
</g>
</svg>
