<?xml version="1.0" standalone="no"?>
<!DOCTYPE svg PUBLIC "-//W3C//DTD SVG 20010904//EN"
 "http://www.w3.org/TR/2001/REC-SVG-20010904/DTD/svg10.dtd">
<svg version="1.0" xmlns="http://www.w3.org/2000/svg"
 width="121.000000pt" height="121.000000pt" viewBox="0 0 121.000000 121.000000"
 preserveAspectRatio="xMidYMid meet">

<g transform="translate(0.000000,121.000000) scale(0.100000,-0.100000)"
fill="#000000" stroke="none">
<path d="M880 1107 c-45 -24 -20 -94 26 -76 39 14 69 11 98 -12 47 -37 31
-126 -32 -174 -20 -15 -42 -20 -87 -20 -52 0 -68 5 -115 36 -114 74 -215 93
-341 65 -88 -19 -139 -47 -139 -76 0 -26 55 -137 83 -167 28 -31 74 -30 123 2
l39 26 -37 -36 c-30 -28 -46 -35 -78 -35 -48 0 -68 18 -105 90 l-26 51 -41
-23 c-84 -47 -136 -157 -145 -304 -3 -50 -3 -108 1 -128 l7 -36 58 0 59 0 23
48 c31 60 68 77 102 44 12 -12 27 -37 33 -55 10 -29 15 -32 55 -35 l45 -3 24
51 c28 59 66 85 113 76 36 -7 118 -66 141 -101 16 -24 22 -26 79 -23 l61 3 -2
55 c-4 78 17 137 82 228 103 147 155 284 142 374 -9 61 -55 130 -99 151 -42
20 -112 22 -147 4z m-110 -392 c0 -32 23 -49 49 -35 12 6 21 15 21 20 0 6 7
10 15 10 22 0 18 -17 -7 -34 -46 -33 -108 -7 -108 44 0 22 4 28 15 24 8 -4 15
-16 15 -29z"/>
<path d="M906 984 c-9 -8 -16 -21 -16 -27 0 -7 -11 -29 -25 -50 l-26 -37 44 0
c24 0 51 6 60 13 21 15 58 87 45 87 -5 0 -16 7 -24 15 -20 19 -39 19 -58 -1z"/>
<path d="M145 246 c-58 -26 -76 -131 -31 -183 21 -24 32 -28 76 -28 42 0 55 4
71 24 10 13 19 38 19 57 0 34 -1 34 -45 34 -33 0 -45 -4 -45 -15 0 -10 10 -15
30 -15 34 0 38 -10 12 -33 -24 -22 -65 -21 -85 1 -23 26 -22 94 1 115 25 23
68 21 85 -3 9 -13 20 -18 31 -14 22 8 20 16 -7 42 -30 28 -74 35 -112 18z"/>
<path d="M670 216 c0 -34 -1 -35 -34 -29 -46 7 -76 -22 -76 -75 0 -60 19 -77
84 -77 l56 -1 0 108 c0 89 -3 108 -15 108 -10 0 -15 -10 -15 -34z m-12 -68 c7
-7 12 -24 12 -38 0 -53 -53 -70 -71 -23 -19 51 24 96 59 61z"/>
<path d="M732 143 c2 -88 6 -108 18 -108 12 0 16 20 18 108 3 102 2 107 -18
107 -20 0 -21 -5 -18 -107z"/>
<path d="M310 112 c0 -63 3 -79 15 -79 11 0 15 12 15 48 0 41 4 51 25 65 27
17 34 44 12 44 -7 0 -18 -5 -25 -12 -9 -9 -12 -9 -12 0 0 7 -7 12 -15 12 -12
0 -15 -15 -15 -78z"/>
<path d="M428 179 c-20 -11 -24 -39 -6 -39 6 0 19 7 29 16 20 18 53 12 47 -8
-3 -7 -19 -15 -36 -19 -39 -8 -62 -26 -62 -49 0 -29 30 -45 87 -45 l53 0 0 67
c0 56 -3 69 -19 78 -25 13 -71 12 -93 -1z m70 -91 c-4 -28 -51 -33 -56 -6 -3
15 5 19 51 27 5 0 7 -9 5 -21z"/>
<path d="M810 170 c-31 -31 -27 -93 6 -119 33 -26 76 -27 98 -2 22 24 5 37
-24 19 -14 -9 -25 -10 -37 -2 -36 23 -26 34 32 34 l57 0 -6 28 c-14 58 -86 82
-126 42z m88 -27 c2 -9 -8 -13 -32 -13 -34 0 -44 8 -29 24 11 11 56 2 61 -11z"/>
</g>
</svg>
