<?xml version="1.0" standalone="no"?>
<!DOCTYPE svg PUBLIC "-//W3C//DTD SVG 20010904//EN"
 "http://www.w3.org/TR/2001/REC-SVG-20010904/DTD/svg10.dtd">
<svg version="1.0" xmlns="http://www.w3.org/2000/svg"
 width="200.000000pt" height="200.000000pt" viewBox="0 0 200.000000 200.000000"
 preserveAspectRatio="xMidYMid meet">

<g transform="translate(0.000000,200.000000) scale(0.100000,-0.100000)"
fill="#000000" stroke="none">
<path d="M490 1000 l0 -500 505 0 505 0 0 500 0 500 -505 0 -505 0 0 -500z
m426 275 c85 -25 133 -102 120 -188 -16 -96 -80 -145 -201 -154 l-75 -6 0
-103 0 -104 -50 0 -50 0 0 279 0 280 38 4 c87 9 172 6 218 -8z m354 -146 c43
-9 50 -14 45 -30 -3 -10 -8 -28 -11 -39 -4 -16 -9 -18 -24 -10 -10 6 -39 10
-64 10 -34 0 -48 -5 -56 -19 -16 -31 -3 -46 71 -81 75 -35 97 -58 105 -111 6
-39 -20 -88 -59 -114 -35 -22 -116 -30 -176 -15 -53 13 -58 20 -41 65 8 20 13
24 27 17 10 -6 37 -13 61 -17 49 -8 92 13 92 44 0 24 -16 37 -87 71 -68 32
-82 46 -90 94 -10 66 29 119 102 137 44 10 49 10 105 -2z"/>
<path d="M760 1109 l0 -101 60 4 c45 3 66 10 85 28 33 31 41 79 20 119 -19 38
-49 51 -116 51 l-49 0 0 -101z"/>
</g>
</svg>
