<?xml version="1.0" standalone="no"?>
<!DOCTYPE svg PUBLIC "-//W3C//DTD SVG 20010904//EN"
 "http://www.w3.org/TR/2001/REC-SVG-20010904/DTD/svg10.dtd">
<svg version="1.0" xmlns="http://www.w3.org/2000/svg"
 width="200.000000pt" height="200.000000pt" viewBox="0 0 200.000000 200.000000"
 preserveAspectRatio="xMidYMid meet">

<g transform="translate(0.000000,200.000000) scale(0.100000,-0.100000)"
fill="#000000" stroke="none">
<path d="M905 1500 c2 -3 -16 -7 -40 -8 -24 -1 -77 -8 -117 -17 -40 -8 -93
-15 -118 -16 l-45 -1 70 -33 70 -33 225 0 c223 0 224 0 155 14 -67 14 -106 14
-270 -2 l-60 -5 104 50 c57 28 110 51 117 51 8 0 64 -25 124 -55 60 -30 118
-55 127 -55 10 1 47 16 83 35 l65 34 -45 1 c-25 0 -63 5 -85 10 -107 24 -370
46 -360 30z"/>
<path d="M1305 1300 c9 -33 45 -89 45 -71 0 8 12 27 26 42 l25 26 -25 5 c-17
3 -23 1 -19 -6 4 -6 0 -6 -9 1 -8 7 -18 10 -22 6 -4 -4 -12 -1 -17 7 -8 11 -9
9 -4 -10z"/>
<path d="M608 1303 l-27 -4 27 -31 c15 -17 26 -36 24 -42 -5 -17 12 4 37 46
22 37 22 37 1 33 -11 -2 -25 -7 -32 -11 -7 -4 -8 -3 -4 4 4 7 6 11 4 11 -2 -1
-15 -4 -30 -6z"/>
<path d="M351 1220 c391 -525 620 -830 624 -830 2 0 -23 43 -56 95 -52 82 -58
98 -48 116 6 12 7 19 1 15 -5 -3 -12 4 -15 15 -5 20 -5 20 14 3 10 -9 19 -21
19 -25 0 -5 9 -23 21 -41 14 -23 19 -26 14 -10 -3 12 -4 22 0 22 3 0 10 -10
15 -22 7 -18 9 -12 9 29 1 42 4 51 16 47 8 -4 15 -14 15 -23 0 -10 3 -12 8 -5
4 6 17 14 29 18 22 7 23 5 17 -41 -4 -38 -3 -44 6 -30 6 9 16 17 21 17 13 0
33 20 42 43 3 9 11 17 16 17 6 0 7 -8 4 -17 -6 -16 -5 -17 12 -3 23 18 24 20
-51 -96 -56 -87 -83 -135 -67 -119 25 25 641 855 630 849 -24 -15 -236 -205
-239 -215 -2 -7 -137 -10 -410 -10 l-407 0 -39 38 c-21 21 -80 74 -132 118
-68 57 -88 70 -69 45z m473 -559 c34 -56 47 -86 27 -65 -12 12 -73 124 -68
124 2 0 21 -27 41 -59z m320 -4 c-3 -9 -10 -17 -15 -17 -6 0 -6 8 0 19 6 10 9
21 7 23 -1 3 1 2 6 -2 5 -3 6 -14 2 -23z m30 3 c-10 -16 -20 -28 -22 -26 -4 5
28 56 35 56 2 0 -4 -13 -13 -30z"/>
<path d="M775 1152 c-185 -81 -197 -87 -160 -90 68 -6 312 10 290 19 -27 10
-24 11 210 18 l200 6 -155 68 c-85 37 -162 67 -170 67 -8 0 -105 -40 -215 -88z"/>
</g>
</svg>
